<svg width="48" height="48" viewBox="0 0 48 48" fill="none" xmlns="http://www.w3.org/2000/svg">
<path d="M24 48C37.2548 48 48 37.2548 48 24C48 10.7452 37.2548 0 24 0C10.7452 0 0 10.7452 0 24C0 37.2548 10.7452 48 24 48Z" fill="#09BD9F"/>
<path fill-rule="evenodd" clip-rule="evenodd" d="M24.0276 38.4C24.0276 38.4 17.5849 28.7646 15.3043 23.4077C14.7242 22.1591 14.4 20.7651 14.4 19.2947C14.4 13.9404 18.6981 9.59998 24 9.59998C29.3019 9.59998 33.6 13.9404 33.6 19.2947C33.6 20.4729 33.3919 21.602 33.0107 22.6466H33.0209C31.4926 26.7108 24.0276 38.4 24.0276 38.4ZM29.6 19.2C29.6 22.2928 27.0928 24.8 24 24.8C20.9072 24.8 18.4 22.2928 18.4 19.2C18.4 16.1072 20.9072 13.6 24 13.6C27.0928 13.6 29.6 16.1072 29.6 19.2Z" fill="white"/>
</svg>
